# xmcd
#
# Track frame offsets:
#	150
#	23357
#	38965
#	64322
#	84760
#	106582
#	124525
#	147192
#	164520
#	177512
#	193192
#	212622
#	235042
#	254790
#	278420
#	310432
#	335880
#
# Disc length: 4674 seconds
#
# Revision: 0
# Processed by: cddbd v1.5.2PL0 Copyright (c) Steve Scherf et al.
# Submitted via: EZCDAudioConverter 3.1.0.1
#
DISCID=ef124011
DTITLE=CYNDI LAUPER - LIVE IN CONCERT
DYEAR=1900
DGENRE=POP
TTITLE0=CHANGE OF HEART
TTITLE1=THE GOONIES
TTITLE2=BOY BLUE
TTITLE3=ALL THROUGH THE NIGHT
TTITLE4=WHATS GOING ON
TTITLE5=IKO IKO
TTITLE6=SHE BOP
TTITLE7=CALM INSIDE THE STOM
TTITLE8=911
TTITLE9=ONE TRACK MIND
TTITLE10=TRUE COLORS
TTITLE11=MAYBE HELL KNOW
TTITLE12=TIME AFTER TIME
TTITLE13=MONEY CHANGES EVERYTHING
TTITLE14=GIRLS JUST WANT TO HAVE FUN
TTITLE15=BABY WORKOUT
TTITLE16=TRUE COLORS (REPRISE)
EXTD=
EXTT0=
EXTT1=
EXTT2=
EXTT3=
EXTT4=
EXTT5=
EXTT6=
EXTT7=
EXTT8=
EXTT9=
EXTT10=
EXTT11=
EXTT12=
EXTT13=
EXTT14=
EXTT15=
EXTT16=
PLAYORDER=
